# xmcd
#
# Track frame offsets: 
#        150
#        16787
#        38757
#        56737
#        82997
#        109812
#        136537
#        156932
#        175564
#        207104
#        228331
#        247961
#        268761
#
# Disc length: 3935 seconds
#
# Revision: 0
# Processed by: cddbd v1.5.2PL0 Copyright (c) Steve Scherf et al.
# Submitted via: ExactAudioCopy v1.0b1
#
DISCID=990f5d0d
DTITLE=Chase Walker Band - Unleashed
DYEAR=2014
DGENRE=Blues Rock
TTITLE0=Coming Clean
TTITLE1=Buffalo Bayou
TTITLE2=Good Day for the Blues
TTITLE3=Into the Darkness
TTITLE4=Too Many Days Ago
TTITLE5=Fall From The Ground
TTITLE6=Blues Deluxe
TTITLE7=Need You Tonight
TTITLE8=DIY
TTITLE9=Who Will
TTITLE10=The Night
TTITLE11=Blues is Here To Stay
TTITLE12=STB
EXTD=
EXTT0=
EXTT1=
EXTT2=
EXTT3=
EXTT4=
EXTT5=
EXTT6=
EXTT7=
EXTT8=
EXTT9=
EXTT10=
EXTT11=
EXTT12=
PLAYORDER=
